<svg xmlns="http://www.w3.org/2000/svg" xmlns:xlink="http://www.w3.org/1999/xlink" width="1024" zoomAndPan="magnify" viewBox="0 0 768 767.999994" height="1024" preserveAspectRatio="xMidYMid meet" version="1.2"><g id="a042d4cd1a"><path style=" stroke:none;fill-rule:nonzero;fill:#ffffff;fill-opacity:1;" d="M 197.160156 351.097656 C 176.011719 351.097656 160.007812 365.863281 145.035156 379.191406 C 130.066406 392.523438 116.128906 404.421875 100.46875 404.421875 C 84.808594 404.421875 60.75 391.835938 41.519531 378.738281 C 22.289062 365.644531 7.554688 352.539062 7.554688 352.539062 L -0.00390625 361.019531 C -0.00390625 361.019531 15.207031 374.570312 35.121094 388.132812 C 55.035156 401.695312 79.324219 415.785156 100.46875 415.785156 C 121.617188 415.785156 137.621094 401.011719 152.59375 387.679688 C 167.5625 374.351562 181.5 362.460938 197.160156 362.460938 C 212.820312 362.460938 226.753906 374.351562 241.726562 387.679688 C 256.695312 401.011719 272.703125 415.785156 293.847656 415.785156 C 314.996094 415.785156 331 401.011719 345.972656 387.679688 C 360.941406 374.351562 374.886719 362.460938 390.546875 362.460938 C 406.207031 362.460938 420.140625 374.351562 435.113281 387.679688 C 450.085938 401.011719 466.089844 415.785156 487.234375 415.785156 C 508.382812 415.785156 524.386719 401.011719 539.359375 387.679688 C 554.332031 374.351562 568.265625 362.460938 583.925781 362.460938 C 599.6875 362.460938 613.609375 373.90625 628.558594 386.960938 C 643.507812 400.011719 659.363281 414.625 680.304688 415.777344 C 724.5 418.203125 754.792969 386.953125 781.296875 360.828125 L 773.320312 352.734375 C 746.710938 378.96875 719.480469 406.542969 680.933594 404.429688 C 665.125 403.5625 651.039062 391.507812 636.03125 378.40625 C 621.027344 365.300781 604.96875 351.097656 583.925781 351.097656 C 562.78125 351.097656 546.773438 365.863281 531.800781 379.191406 C 516.832031 392.523438 502.894531 404.421875 487.234375 404.421875 C 471.574219 404.421875 457.640625 392.523438 442.667969 379.191406 C 427.699219 365.863281 411.691406 351.097656 390.546875 351.097656 C 369.402344 351.097656 353.394531 365.863281 338.421875 379.191406 C 323.453125 392.523438 309.507812 404.421875 293.847656 404.421875 C 278.1875 404.421875 264.253906 392.523438 249.28125 379.191406 C 234.3125 365.863281 218.304688 351.097656 197.160156 351.097656 Z M 197.160156 351.097656 "/><path style=" stroke:none;fill-rule:nonzero;fill:#000000;fill-opacity:1;" d="M 197.160156 351.101562 C 176.011719 351.101562 160.007812 365.929688 145.035156 379.316406 C 130.066406 392.703125 116.128906 404.652344 100.46875 404.652344 C 84.808594 404.652344 60.75 392.015625 41.519531 378.863281 C 22.289062 365.710938 7.554688 352.550781 7.554688 352.550781 L -0.00390625 361.066406 C -0.00390625 361.066406 15.207031 374.675781 35.121094 388.296875 C 55.035156 401.917969 79.324219 416.066406 100.46875 416.066406 C 121.617188 416.066406 137.621094 401.226562 152.59375 387.839844 C 167.5625 374.453125 181.5 362.515625 197.160156 362.515625 C 212.820312 362.515625 226.753906 374.453125 241.726562 387.839844 C 256.695312 401.226562 272.703125 416.066406 293.847656 416.066406 C 314.996094 416.066406 331 401.226562 345.972656 387.839844 C 360.941406 374.453125 374.886719 362.515625 390.546875 362.515625 C 406.207031 362.515625 420.140625 374.453125 435.113281 387.839844 C 450.085938 401.226562 466.089844 416.066406 487.234375 416.066406 C 508.382812 416.066406 524.386719 401.226562 539.359375 387.839844 C 554.332031 374.453125 568.265625 362.515625 583.925781 362.515625 C 599.6875 362.515625 613.609375 374.007812 628.558594 387.117188 C 643.507812 400.226562 659.363281 414.902344 680.304688 416.058594 C 724.5 418.492188 754.792969 387.109375 781.296875 360.871094 L 773.320312 352.742188 C 746.710938 379.089844 719.480469 406.785156 680.933594 404.660156 C 665.125 403.789062 651.039062 391.683594 636.03125 378.527344 C 621.027344 365.367188 604.96875 351.101562 583.925781 351.101562 C 562.78125 351.101562 546.773438 365.929688 531.800781 379.316406 C 516.832031 392.703125 502.894531 404.652344 487.234375 404.652344 C 471.574219 404.652344 457.640625 392.703125 442.667969 379.316406 C 427.699219 365.929688 411.691406 351.101562 390.546875 351.101562 C 369.402344 351.101562 353.394531 365.929688 338.421875 379.316406 C 323.453125 392.703125 309.507812 404.652344 293.847656 404.652344 C 278.1875 404.652344 264.253906 392.703125 249.28125 379.316406 C 234.3125 365.929688 218.304688 351.101562 197.160156 351.101562 Z M 197.160156 351.101562 "/></g></svg>